<svg width="209" height="155" viewBox="0 0 209 155" fill="none" xmlns="http://www.w3.org/2000/svg">
<g opacity="0.1">
<path d="M154.632 64.444C152.467 61.2932 148.9 59.5517 145.109 59.7519C131.615 60.5085 121.366 66.4257 120.935 66.6779C118.942 67.8469 118.268 70.4131 119.428 72.4189C120.588 74.4246 123.151 75.1052 125.149 73.9482C125.236 73.9002 134.166 68.7877 145.575 68.1512C146.739 68.0231 147.441 68.7917 147.736 69.2201C147.983 69.5804 148.497 70.5413 147.963 71.7423C143.929 80.8302 133.281 97.6168 107.329 107.886C105.177 108.738 104.12 111.181 104.969 113.338C105.619 114.992 107.198 116.001 108.868 116.001C109.378 116.001 109.897 115.909 110.403 115.709C139.129 104.343 151.06 85.4262 155.617 75.1613C157.183 71.6302 156.817 67.6227 154.632 64.444Z" fill="#B79A78"/>
<path d="M140.987 104.306C140.903 104.423 132.32 115.62 118.252 119.504C116.024 120.12 114.712 122.434 115.326 124.672C115.836 126.538 117.523 127.763 119.36 127.763C119.727 127.763 120.102 127.715 120.473 127.611C137.379 122.947 147.269 109.911 147.684 109.363C149.067 107.505 148.692 104.883 146.851 103.486C145.009 102.097 142.386 102.461 140.991 104.306H140.987Z" fill="#B79A78"/>
<path d="M162.891 117.547C164.182 115.621 163.676 113.007 161.759 111.71C159.841 110.416 157.238 110.925 155.946 112.847C155.855 112.987 146.395 126.819 126.81 132.52C124.589 133.164 123.31 135.498 123.952 137.728C124.482 139.57 126.156 140.763 127.974 140.763C128.361 140.763 128.751 140.711 129.142 140.595C151.613 134.053 162.44 118.215 162.891 117.543V117.547Z" fill="#B79A78"/>
<path d="M172.432 120.345C172.201 120.541 149.2 139.97 141.594 144.378C139.592 145.539 138.903 148.109 140.059 150.123C140.836 151.472 142.243 152.225 143.69 152.225C144.4 152.225 145.121 152.045 145.779 151.66C154.019 146.884 176.857 127.599 177.826 126.779C179.592 125.285 179.823 122.631 178.332 120.853C176.845 119.076 174.206 118.844 172.432 120.345Z" fill="#B79A78"/>
<path d="M122.004 168.388C125.022 168.388 128.016 167.187 130.268 164.861C132.612 162.435 133.78 159.116 133.465 155.757C133.15 152.358 131.368 149.28 128.582 147.306C103.057 129.246 96.2961 103.492 94.5421 89.7438C94.3587 88.3106 95.2756 87.5179 95.6782 87.2457C96.0689 86.9814 97.1053 86.433 98.3092 87.1015C106.673 91.7256 111.05 98.9518 111.125 99.08C112.297 101.078 114.861 101.738 116.85 100.569C118.843 99.3922 119.513 96.814 118.341 94.8122C118.122 94.4359 112.836 85.5322 102.343 79.7311C98.7397 77.7454 94.3826 77.9616 90.9623 80.2916C87.518 82.6457 85.7042 86.6772 86.2344 90.8128C88.1678 105.93 95.6104 134.267 123.758 154.184C124.831 154.941 125.074 155.981 125.126 156.538C125.178 157.07 125.126 158.103 124.261 159C123.176 160.121 121.462 160.289 120.195 159.392C110.982 152.887 94.6098 139.131 88.5067 120.102C87.7971 117.888 85.4411 116.687 83.2366 117.388C81.0361 118.1 79.8283 120.471 80.5339 122.68C87.3865 144.039 105.305 159.16 115.375 166.27C117.388 167.692 119.7 168.388 122 168.388H122.004Z" fill="#B79A78"/>
<path d="M71.5814 127.073C70.4971 125.023 67.9657 124.246 65.9207 125.335C63.8796 126.424 63.1023 128.966 64.1866 131.02C64.8364 132.249 80.3315 161.182 101.141 167.82C101.563 167.956 101.99 168.016 102.408 168.016C104.186 168.016 105.833 166.875 106.399 165.086C107.096 162.872 105.88 160.51 103.676 159.805C86.1317 154.212 71.7249 127.349 71.5814 127.077V127.073Z" fill="#B79A78"/>
<path d="M75.5742 165.573C77.1927 165.573 78.7315 164.629 79.4171 163.047C80.338 160.917 79.3693 158.439 77.2485 157.514C67.422 153.215 56.8063 132.052 53.5414 124.258C52.6445 122.12 50.1888 121.107 48.0601 122.012C45.9274 122.908 44.9268 125.375 45.8198 127.516C47.1512 130.703 59.2459 158.82 73.9039 165.229C74.4501 165.465 75.0161 165.581 75.5742 165.581V165.573Z" fill="#B79A78"/>
<path d="M6.52713 106.982L120 30.1992L233.473 106.986C234.19 107.47 235.004 107.703 235.809 107.703C237.156 107.703 238.476 107.054 239.285 105.845C240.577 103.919 240.07 101.305 238.153 100.008L122.34 21.6397C120.925 20.6829 119.075 20.6829 117.66 21.6397L1.8471 100.008C-0.0703588 101.305 -0.576632 103.919 0.714962 105.845C2.00656 107.775 4.60967 108.279 6.52713 106.982Z" fill="#B79A78"/>
<path d="M6.52713 86.0598L120 9.27306L233.473 86.0598C234.19 86.5442 235.004 86.7764 235.809 86.7764C237.156 86.7764 238.476 86.1279 239.285 84.9188C240.577 82.9931 240.07 80.3789 238.153 79.0817L122.34 0.717624C120.925 -0.239208 119.075 -0.239208 117.66 0.717624L72.1433 31.5164C72.4861 30.5996 72.801 29.6628 73.0482 28.6779C74.8979 21.3876 73.5624 13.9091 69.0777 6.46262C67.9057 4.51693 65.4063 3.86036 63.433 4.97733C58.9363 7.53555 53.0524 12.9643 49.8513 20.7911C49.369 19.9984 48.8627 19.2097 48.3006 18.441C42.7037 10.7704 34.3442 6.07028 23.4534 4.47289C21.209 4.1366 19.1162 5.66192 18.7255 7.90788C18.6697 8.23616 13.7943 38.4224 42.2532 51.738L1.8471 79.0817C-0.0703588 80.3789 -0.576632 82.9931 0.714962 84.9188C2.00656 86.8445 4.60967 87.3529 6.52713 86.0558V86.0598ZM63.9951 14.998C65.5537 18.9655 65.8766 22.8369 64.9438 26.5521C63.5725 32.0168 59.7775 36.3086 56.7398 39.0029C53.7022 26.7523 59.7735 18.8294 63.9951 14.994V14.998ZM26.6664 13.7009C33.0726 15.4104 38.0556 18.6492 41.5158 23.3733C46.6702 30.4074 47.5392 39.3592 47.4994 44.892C28.9706 37.1333 26.6345 21.3596 26.6664 13.7009Z" fill="#B79A78"/>
</g>
</svg>
