<svg style="display: none;" xmlns="http://www.w3.org/2000/svg"> 
	<symbol id="icon-logo" viewBox="0 0 146 26" fill="currentColor">
		<path d="M23.8761 9.95064C23.5419 9.46415 22.991 9.19525 22.4056 9.22616C20.3221 9.34299 18.7396 10.2566 18.6731 10.2956C18.3653 10.4761 18.2613 10.8723 18.4404 11.182C18.6195 11.4917 19.0153 11.5968 19.3237 11.4182C19.3372 11.4107 20.716 10.6213 22.4776 10.5231C22.6574 10.5033 22.7657 10.622 22.8112 10.6881C22.8494 10.7437 22.9288 10.8921 22.8463 11.0775C22.2234 12.4808 20.5794 15.0727 16.5723 16.6583C16.2399 16.79 16.0768 17.167 16.2079 17.5002C16.3082 17.7555 16.552 17.9113 16.8099 17.9113C16.8887 17.9113 16.9687 17.8971 17.0469 17.8662C21.4823 16.1112 23.3246 13.1904 24.0281 11.6055C24.27 11.0602 24.2134 10.4415 23.8761 9.95064Z"/>
		<path d="M21.7692 16.1057C21.7562 16.1236 20.431 17.8526 18.2588 18.4522C17.9147 18.5474 17.7122 18.9047 17.807 19.2503C17.8858 19.5383 18.1462 19.7275 18.4299 19.7275C18.4866 19.7275 18.5444 19.7201 18.6017 19.704C21.2121 18.9838 22.7392 16.9711 22.8032 16.8864C23.0168 16.5996 22.959 16.1947 22.6746 15.9789C22.3902 15.7644 21.9852 15.8207 21.7698 16.1057H21.7692Z"/>
		<path d="M25.1513 18.1499C25.3507 17.8526 25.2726 17.4489 24.9765 17.2486C24.6804 17.049 24.2785 17.1275 24.0791 17.4242C24.0649 17.4458 22.6043 19.5816 19.5802 20.4618C19.2373 20.5613 19.0398 20.9217 19.1389 21.266C19.2207 21.5504 19.4792 21.7346 19.7599 21.7346C19.8196 21.7346 19.88 21.7266 19.9403 21.7086C23.41 20.6986 25.0817 18.2531 25.1513 18.1493V18.1499Z"/>
		<path d="M26.6245 18.582C26.5888 18.6123 23.0373 21.6122 21.8629 22.2928C21.5539 22.4721 21.4474 22.8689 21.6259 23.1798C21.7459 23.3882 21.9632 23.5044 22.1866 23.5044C22.2962 23.5044 22.4076 23.4766 22.5092 23.4172C23.7814 22.6798 27.3078 19.7021 27.4574 19.5754C27.73 19.3448 27.7657 18.9349 27.5355 18.6605C27.3059 18.386 26.8985 18.3502 26.6245 18.582Z"/>
		<path d="M18.8382 26.0001C19.3041 26.0001 19.7664 25.8147 20.1142 25.4555C20.4761 25.0809 20.6564 24.5684 20.6078 24.0498C20.5592 23.525 20.284 23.0496 19.8538 22.7449C15.9126 19.9563 14.8687 15.9797 14.5978 13.857C14.5695 13.6357 14.7111 13.5133 14.7733 13.4712C14.8336 13.4304 14.9936 13.3457 15.1795 13.449C16.4709 14.1629 17.1467 15.2787 17.1584 15.2985C17.3394 15.607 17.7352 15.709 18.0423 15.5285C18.3501 15.3467 18.4535 14.9486 18.2725 14.6395C18.2387 14.5814 17.4225 13.2067 15.8024 12.3109C15.246 12.0043 14.5732 12.0377 14.0451 12.3975C13.5133 12.761 13.2332 13.3834 13.3151 14.022C13.6136 16.3562 14.7628 20.7315 19.109 23.8069C19.2746 23.9237 19.3121 24.0844 19.3201 24.1704C19.3281 24.2526 19.3201 24.4121 19.1866 24.5505C19.0191 24.7236 18.7545 24.7496 18.5587 24.6111C17.1363 23.6066 14.6083 21.4826 13.6659 18.5445C13.5564 18.2026 13.1926 18.0172 12.8522 18.1254C12.5125 18.2354 12.3259 18.6013 12.4349 18.9426C13.493 22.2405 16.2598 24.5752 17.8146 25.6731C18.1254 25.8925 18.4824 26.0001 18.8376 26.0001H18.8382Z"/>
		<path d="M11.0526 19.6206C10.8852 19.3041 10.4943 19.1842 10.1786 19.3523C9.8634 19.5204 9.74338 19.913 9.9108 20.2301C10.0111 20.4199 12.4037 24.8873 15.6167 25.9122C15.6819 25.9332 15.7478 25.9425 15.8124 25.9425C16.087 25.9425 16.3412 25.7663 16.4286 25.49C16.5363 25.1482 16.3486 24.7835 16.0082 24.6747C13.2993 23.8111 11.0748 19.6632 11.0526 19.6212V19.6206Z"/>
		<path d="M11.6691 25.5653C11.919 25.5653 12.1566 25.4195 12.2625 25.1753C12.4047 24.8464 12.2551 24.4638 11.9276 24.321C10.4104 23.6571 8.77122 20.3895 8.26711 19.1859C8.12862 18.8558 7.74946 18.6994 7.42077 18.8391C7.09146 18.9776 6.93696 19.3584 7.07484 19.6891C7.28043 20.1812 9.14792 24.5225 11.4112 25.5122C11.4955 25.5487 11.5829 25.5666 11.6691 25.5666V25.5653Z"/>
		<path d="M1.00783 16.5186L18.5287 4.6629L36.0496 16.5192C36.1604 16.594 36.2859 16.6299 36.4103 16.6299C36.6183 16.6299 36.8221 16.5297 36.947 16.3431C37.1464 16.0457 37.0683 15.6421 36.7722 15.4418L18.89 3.34127C18.6715 3.19353 18.3859 3.19353 18.1674 3.34127L0.285203 15.4418C-0.0108638 15.6421 -0.0890353 16.0457 0.110394 16.3431C0.309824 16.641 0.711761 16.7189 1.00783 16.5186Z"/>
		<path d="M1.00783 13.2881L18.5287 1.43182L36.0496 13.2881C36.1604 13.3629 36.2859 13.3988 36.4103 13.3988C36.6183 13.3988 36.8221 13.2986 36.947 13.112C37.1464 12.8146 37.0683 12.411 36.7722 12.2107L18.89 0.110805C18.6715 -0.0369351 18.3859 -0.0369351 18.1674 0.110805L11.1393 4.86632C11.1923 4.72476 11.2409 4.58011 11.2791 4.42804C11.5647 3.30237 11.3585 2.14765 10.666 0.997866C10.485 0.69744 10.0991 0.596062 9.79443 0.768528C9.10011 1.16353 8.1916 2.00176 7.69734 3.21026C7.62286 3.08787 7.54469 2.96609 7.4579 2.8474C6.5937 1.66301 5.30295 0.937286 3.62134 0.69064C3.2748 0.638715 2.95165 0.874234 2.89133 1.22102C2.88271 1.27171 2.12993 5.93264 6.52415 7.98865L0.285203 12.2107C-0.0108638 12.411 -0.0890353 12.8146 0.110394 13.112C0.309824 13.4093 0.711761 13.4878 1.00783 13.2875V13.2881ZM9.88121 2.31579C10.1219 2.92838 10.1717 3.52614 10.0277 4.0998C9.81597 4.94359 9.22999 5.60626 8.76096 6.02228C8.29193 4.13071 9.22937 2.90737 9.88121 2.31517V2.31579ZM4.11745 2.1155C5.1066 2.37946 5.876 2.87955 6.41028 3.60898C7.20615 4.69509 7.34033 6.07729 7.33418 6.93159C4.47323 5.7336 4.11253 3.29804 4.11745 2.1155Z"/>
		<path d="M52.8027 10.9107C53.2293 10.2141 53.5851 9.51741 53.9051 8.80281C54.2074 8.10676 54.4567 7.41071 54.6518 6.73136C54.7761 6.26774 54.741 5.87458 54.5631 5.57107C54.3496 5.28486 53.9587 5.12476 53.3715 5.12476H46.8986V6.07054C46.8986 6.35675 46.9516 6.57125 47.0944 6.6955C47.2187 6.8383 47.4501 6.8927 47.8059 6.8927H52.1983C51.6117 8.571 50.7937 10.143 49.7264 11.6253C48.6418 13.1256 47.3966 14.4293 45.9741 15.5364L46.7386 16.4291C46.9522 16.6794 47.2009 16.7153 47.5037 16.5008C48.286 15.9469 49.0327 15.3405 49.7085 14.697C50.3665 14.072 50.9709 13.4112 51.5403 12.6972C52.074 13.2684 52.6255 13.787 53.2299 14.2507C53.8165 14.7514 54.4394 15.1977 55.0796 15.5896C55.2753 15.7324 55.4532 15.7682 55.6311 15.7151C55.7733 15.6792 55.9154 15.5896 56.0225 15.4289L56.6091 14.6073C55.9511 14.1425 55.311 13.6072 54.6709 12.9822C54.0307 12.3745 53.4084 11.6964 52.804 10.9107H52.8027Z"/>
		<path d="M58.9543 4.35632H57.6919V21.0547H58.9543C59.2387 21.0547 59.4523 20.983 59.6302 20.8575C59.7902 20.7147 59.8788 20.5008 59.8788 20.2325V5.17786C59.8788 4.91019 59.7896 4.69569 59.6302 4.5529C59.4523 4.42803 59.2387 4.35694 58.9543 4.35694V4.35632Z"/>
		<path d="M75.2087 6.1064C74.8179 5.64278 74.3728 5.28486 73.8392 5.07036C73.2877 4.87441 72.6832 4.76685 72.0431 4.76685C71.4029 4.76685 70.7985 4.87379 70.2648 5.08829C69.7312 5.30217 69.2689 5.65947 68.8953 6.12433C68.5044 6.60649 68.2016 7.23145 68.0059 7.98128C67.7923 8.76696 67.6858 9.69606 67.6858 10.8032C67.6858 11.9103 67.7923 12.8567 68.0059 13.6072C68.2016 14.3928 68.5038 15.0178 68.8953 15.4827C69.2689 15.9648 69.7312 16.3042 70.2648 16.5187C70.7985 16.7326 71.3851 16.8395 72.0431 16.8395C72.7011 16.8395 73.2883 16.7326 73.8392 16.5187C74.3728 16.3215 74.8172 15.9828 75.2087 15.5006C75.5823 15.0357 75.8846 14.4108 76.0981 13.6251C76.2939 12.8753 76.4004 11.9282 76.4004 10.8038C76.4004 9.67937 76.2939 8.74966 76.0981 7.96397C75.8846 7.21353 75.5823 6.58795 75.2087 6.10578V6.1064ZM74.0706 12.8753C73.9641 13.4291 73.8392 13.8569 73.6619 14.179C73.4662 14.5183 73.2347 14.7508 72.9682 14.8756C72.6838 15.0184 72.3816 15.0716 72.0437 15.0716C71.7058 15.0716 71.4036 15.0184 71.1543 14.8756C70.8699 14.7508 70.6385 14.5183 70.4606 14.179C70.2648 13.8575 70.1226 13.4291 70.0334 12.8753C69.9269 12.3393 69.8734 11.6426 69.8734 10.8038C69.8734 9.96496 69.9269 9.28498 70.0334 8.73173C70.1226 8.1964 70.2648 7.75009 70.4606 7.41072C70.6385 7.08928 70.8693 6.87477 71.1543 6.73136C71.4036 6.60649 71.7058 6.5354 72.0437 6.5354C72.3816 6.5354 72.6838 6.60711 72.9682 6.73136C73.2347 6.87416 73.4662 7.08866 73.6619 7.41072C73.8398 7.75009 73.9641 8.1964 74.0706 8.73173C74.1599 9.2856 74.2128 9.98227 74.2128 10.8038C74.2128 11.6253 74.1592 12.3393 74.0706 12.8753Z"/>
		<path d="M80.3129 5.17785C80.3129 4.91019 80.2237 4.69569 80.0643 4.55289C79.8864 4.42802 79.6728 4.35693 79.3884 4.35693H78.126V21.0553H79.3884C79.6728 21.0553 79.8864 20.9836 80.0643 20.8581C80.2243 20.7153 80.3129 20.5014 80.3129 20.2332V11.072H81.7533C82.0555 11.072 82.2869 11.0182 82.4469 10.9113C82.5891 10.8044 82.6605 10.6072 82.6605 10.2863V9.26822H80.3129V5.17847V5.17785Z"/>
		<path d="M101.636 5.17785C101.636 4.91019 101.547 4.69569 101.388 4.55289C101.21 4.42802 100.996 4.35693 100.712 4.35693H99.4492V15.7156H100.712C100.996 15.7156 101.21 15.6439 101.388 15.5011C101.548 15.3763 101.636 15.1797 101.636 14.8941V10.7147H103.076C103.379 10.7147 103.61 10.6616 103.77 10.554C103.912 10.4471 103.984 10.2505 103.984 9.92904V8.91092H101.636V5.17847V5.17785Z"/>
		<path d="M93.615 14.161C94.1844 14.161 94.7002 14.0714 95.1975 13.8748C95.6776 13.6961 96.1048 13.4458 96.4599 13.0891C96.8157 12.7491 97.1001 12.3207 97.3137 11.8033C97.5094 11.3026 97.6159 10.7135 97.6159 10.0712C97.6159 9.64223 97.5624 9.23178 97.4559 8.83863C97.3494 8.48195 97.1893 8.14196 97.0115 7.82113H97.5981C97.9003 7.82113 98.1317 7.76735 98.2917 7.65979C98.4339 7.55285 98.5053 7.35628 98.5053 7.03483V6.01734H94.7002V4.92752C94.7002 4.6784 94.6466 4.48121 94.5758 4.33841C94.4866 4.21354 94.2915 4.14246 93.9892 4.14246H92.5132V6.01796H88.7253V7.03545C88.7253 7.35689 88.7961 7.55347 88.9567 7.66041C89.0989 7.76735 89.3125 7.82175 89.6326 7.82175H90.237C90.0234 8.14258 89.8812 8.48257 89.7748 8.83924C89.6683 9.23239 89.6147 9.64285 89.6147 10.0719C89.6147 10.7141 89.7212 11.3039 89.9348 11.8039C90.1305 12.322 90.4149 12.7497 90.7885 13.0897C91.1443 13.4464 91.5536 13.6968 92.051 13.8754C92.5311 14.0714 93.0469 14.1616 93.6156 14.1616L93.615 14.161ZM92.2633 8.42817C92.5655 8.05356 92.9927 7.85699 93.5257 7.82113H93.7036C94.273 7.85699 94.6996 8.05294 95.0018 8.44609C95.2861 8.83863 95.4462 9.39188 95.4462 10.0712C95.4462 10.7852 95.2861 11.3391 94.9839 11.7322C94.6639 12.1248 94.2188 12.3213 93.6144 12.3213C93.045 12.3213 92.6006 12.1242 92.2805 11.7322C91.9426 11.3576 91.7826 10.8038 91.7826 10.0712C91.7826 9.33872 91.9426 8.8207 92.2627 8.42755L92.2633 8.42817Z"/>
		<path d="M102.097 18.0541H100.355C100.141 18.7149 99.7325 19.2156 99.1275 19.5723C98.523 19.9123 97.7579 20.091 96.8334 20.091C96.3354 20.091 95.891 20.0372 95.4996 19.9655C95.1081 19.8765 94.7702 19.7337 94.5215 19.5371C94.2371 19.3226 94.0414 19.0543 93.8992 18.7335C93.757 18.3762 93.6856 17.9651 93.6856 17.4477V16.4475C93.6856 16.1792 93.5964 15.9654 93.4542 15.8226C93.2763 15.6971 93.0627 15.6254 92.7783 15.6254H91.498V17.5009C91.498 18.323 91.6224 19.0011 91.8889 19.5723C92.1382 20.1262 92.5112 20.5731 92.9919 20.9298C93.4542 21.2512 94.0235 21.5016 94.6815 21.6444C95.3217 21.7872 96.0511 21.8583 96.8334 21.8583C98.2202 21.8583 99.4118 21.5906 100.372 21.0726C101.314 20.5373 101.99 19.6978 102.417 18.5907C102.541 18.2334 102.435 18.0547 102.097 18.0547L102.097 18.0541Z"/>
		<path d="M110.031 16.3215C110.031 16.6077 110.102 16.8395 110.244 17.0009C110.369 17.1795 110.564 17.2512 110.849 17.2512H120.149C120.416 17.2512 120.629 17.1795 120.772 17.0009C120.896 16.8395 120.967 16.6077 120.967 16.3215V15.4827H110.031V16.3215Z"/>
		<path d="M112.073 5.9814C111.682 6.37455 111.379 6.83817 111.184 7.37474C110.971 7.92861 110.864 8.53502 110.864 9.19584C110.864 9.85665 110.971 10.4637 111.184 10.9996C111.38 11.5535 111.682 12.0177 112.073 12.393C112.447 12.7855 112.909 13.0896 113.443 13.3029C113.976 13.5174 114.563 13.6243 115.221 13.6243C115.879 13.6243 116.466 13.5174 117.017 13.3029C117.551 13.1069 117.995 12.8034 118.387 12.4103C118.76 12.0357 119.062 11.5708 119.276 11.0169C119.472 10.4816 119.578 9.87396 119.578 9.19584C119.578 8.51772 119.472 7.92799 119.276 7.37474C119.062 6.83879 118.76 6.35663 118.387 5.96348C117.996 5.58887 117.551 5.28535 117.017 5.07085C116.466 4.87489 115.861 4.76733 115.221 4.76733C114.581 4.76733 113.976 4.87428 113.443 5.08878C112.909 5.30266 112.447 5.6068 112.073 5.9814ZM115.22 6.53527C115.914 6.53527 116.448 6.76708 116.839 7.19609C117.194 7.65971 117.39 8.32052 117.39 9.19584C117.39 10.0712 117.194 10.7678 116.839 11.1956C116.447 11.6419 115.914 11.8564 115.22 11.8564C114.527 11.8564 114.029 11.6419 113.638 11.1956C113.246 10.7672 113.051 10.0885 113.051 9.19584C113.051 8.30321 113.247 7.6424 113.638 7.19609C114.029 6.76708 114.545 6.53527 115.22 6.53527Z"/>
		<path d="M122.922 4.35632H121.659V21.0547H122.922C123.206 21.0547 123.42 20.983 123.598 20.8575C123.758 20.7147 123.846 20.5008 123.846 20.2325V5.17786C123.846 4.91019 123.757 4.69569 123.598 4.5529C123.42 4.42803 123.206 4.35694 122.922 4.35694V4.35632Z"/>
		<path d="M139.247 15.286C139.247 15.6075 139.318 15.804 139.478 15.911C139.62 16.0179 139.834 16.0723 140.153 16.0723H142.981V16.7863H144.244C144.529 16.7863 144.742 16.7146 144.919 16.5718C145.08 16.4469 145.169 16.2503 145.169 15.9648V5.17785C145.169 4.91019 145.08 4.69569 144.919 4.55289C144.742 4.42802 144.529 4.35693 144.244 4.35693H142.981V14.2691H139.247V15.2866V15.286Z"/>
		<path d="M135.461 15.5897H136.723C137.008 15.5897 137.221 15.5192 137.399 15.3758C137.559 15.2503 137.648 15.0543 137.648 14.7681V13.4106H141.471C141.739 13.4106 141.951 13.3389 142.094 13.1615C142.218 13.0002 142.289 12.7684 142.289 12.4822V11.6427H131.353V12.4822C131.353 12.7684 131.424 13.0002 131.566 13.1615C131.691 13.3396 131.886 13.4106 132.171 13.4106H135.461V15.5897Z"/>
		<path d="M145.63 18.0541H143.888C143.674 18.7149 143.212 19.2156 142.501 19.5723C141.789 19.9122 140.918 20.0909 139.922 20.0909C139.371 20.0909 138.873 20.0371 138.446 19.9654C137.984 19.8764 137.61 19.7336 137.308 19.537C136.988 19.3225 136.756 19.0542 136.596 18.7334C136.419 18.3761 136.33 17.965 136.33 17.4476V16.9828C136.33 16.7151 136.241 16.5006 136.098 16.3578C135.921 16.233 135.707 16.1619 135.423 16.1619H134.142V17.5008C134.142 18.323 134.267 19.0011 134.551 19.5723C134.818 20.1261 135.209 20.5731 135.725 20.9297C136.223 21.2512 136.845 21.5015 137.557 21.6443C138.25 21.7871 139.033 21.8582 139.922 21.8582C140.651 21.8582 141.345 21.7877 142.003 21.6623C142.643 21.5195 143.212 21.3229 143.745 21.0552C144.243 20.769 144.687 20.4303 145.079 20.0371C145.435 19.6267 145.737 19.1445 145.95 18.5906C146.074 18.2333 145.968 18.0547 145.63 18.0547L145.63 18.0541Z"/>
		<path d="M133.394 10.1245C133.768 10.4107 134.23 10.6067 134.764 10.7322C135.297 10.875 135.884 10.9467 136.542 10.9467C137.2 10.9467 137.787 10.875 138.338 10.7322C138.872 10.6067 139.316 10.4107 139.708 10.1245C140.081 9.87415 140.383 9.5354 140.597 9.14287C140.792 8.74972 140.899 8.3034 140.899 7.76684C140.899 7.23028 140.793 6.7852 140.597 6.39205C140.383 5.9989 140.081 5.67807 139.708 5.39187C139.317 5.14151 138.872 4.92701 138.338 4.78421C137.787 4.65935 137.182 4.58826 136.542 4.58826C135.902 4.58826 135.297 4.65996 134.764 4.78421C134.23 4.92701 133.768 5.14151 133.394 5.39187C133.003 5.67807 132.7 5.9989 132.505 6.39205C132.292 6.80251 132.185 7.26737 132.185 7.76684C132.185 8.30279 132.292 8.7491 132.505 9.14287C132.701 9.5354 133.003 9.87415 133.394 10.1245ZM134.959 6.67826C135.351 6.46376 135.867 6.35681 136.542 6.35681C137.217 6.35681 137.769 6.46376 138.16 6.67826C138.516 6.91007 138.712 7.26737 138.712 7.76746C138.712 8.26755 138.516 8.62547 138.16 8.83873C137.769 9.07178 137.236 9.17872 136.542 9.17872C135.848 9.17872 135.351 9.07178 134.959 8.83873C134.568 8.62485 134.373 8.26755 134.373 7.76746C134.373 7.26737 134.569 6.91069 134.959 6.67826Z"/>
	</symbol>

	<symbol id="icon-naver-booking" viewBox="0 0 24 24" stroke="currentColor" fill="none">
		<path d="M7.80005 1.69995V5.29995" stroke-width="1.5" stroke-miterlimit="10" stroke-linejoin="round"/>
		<path d="M16.2 1.69995V5.29995" stroke-width="1.5" stroke-miterlimit="10" stroke-linejoin="round"/>
		<path d="M3.50037 9.08984H20.5004" stroke-width="1.5" stroke-miterlimit="10" stroke-linecap="round" stroke-linejoin="round"/>
		<rect x="6.59998" y="13.2" width="2.4" height="1.2" fill="#B79A78"/>
		<rect x="6.59998" y="16.8" width="2.4" height="1.2" fill="#B79A78"/>
		<rect x="11.4" y="13.2" width="2.4" height="1.2" fill="#B79A78"/>
		<path d="M15.6 17.0999L17.4 18.8999L21.9 14.3999" stroke-width="1.5"/>
		<path d="M14.7 21.6001H4C3.44771 21.6001 3 21.1524 3 20.6001V4.6001C3 4.04781 3.44772 3.6001 4 3.6001H20C20.5523 3.6001 21 4.04781 21 4.6001V12.0001" stroke-width="1.5"/>
	</symbol>

	<symbol id="icon-naver-booking2" viewBox="0 0 48 48" stroke="currentColor" fill="none">
		<path d="M15.5996 3.3999V10.5999" stroke-width="2.3" stroke-miterlimit="10" stroke-linejoin="round"/>
		<path d="M32.4004 3.3999V10.5999" stroke-width="2.3" stroke-miterlimit="10" stroke-linejoin="round"/>
		<path d="M8 43.2H29.4L40.0317 43.0312C41.1238 43.0139 42 42.1237 42 41.0315V24V9.19995C42 8.09538 41.1046 7.19995 40 7.19995H8C6.89543 7.19995 6 8.09538 6 9.19995V41.2C6 42.3045 6.89543 43.2 8 43.2Z" stroke-width="2.3"/>
		<path d="M26.4922 26.4932L21.3019 19H17V33H21.5078V25.5068L26.6972 33H31V19H26.4922V26.4932Z" fill="white"/>
	</symbol>


	<symbol id="icon-kakao-cs" viewBox="0 0 24 24" fill="none" stroke="currentColor">
		<path d="M18.4698 16.83L18.8598 19.99C18.9598 20.82 18.0698 21.4 17.3598 20.97L13.1698 18.48C12.7098 18.48 12.2599 18.45 11.8199 18.39C12.5599 17.52 12.9998 16.42 12.9998 15.23C12.9998 12.39 10.5398 10.09 7.49985 10.09C6.33985 10.09 5.26985 10.42 4.37985 11C4.34985 10.75 4.33984 10.5 4.33984 10.24C4.33984 5.68999 8.28985 2 13.1698 2C18.0498 2 21.9998 5.68999 21.9998 10.24C21.9998 12.94 20.6098 15.33 18.4698 16.83Z" stroke-width="1.5" stroke-linecap="round" stroke-linejoin="round"/>
		<path d="M13 15.23C13 16.42 12.56 17.52 11.82 18.39C10.83 19.59 9.26 20.36 7.5 20.36L4.89 21.91C4.45 22.18 3.89 21.81 3.95 21.3L4.2 19.33C2.86 18.4 2 16.91 2 15.23C2 13.47 2.94 11.92 4.38 11C5.27 10.42 6.34 10.09 7.5 10.09C10.54 10.09 13 12.39 13 15.23Z" stroke-width="1.5" stroke-linecap="round" stroke-linejoin="round"/>
	</symbol>

	<symbol id="icon-tel-cs" viewBox="0 0 24 24" fill="none" stroke="currentColor">
		<path d="M21.97 18.33C21.97 18.69 21.89 19.06 21.72 19.42C21.55 19.78 21.33 20.12 21.04 20.44C20.55 20.98 20.01 21.37 19.4 21.62C18.8 21.87 18.15 22 17.45 22C16.43 22 15.34 21.76 14.19 21.27C13.04 20.78 11.89 20.12 10.75 19.29C9.6 18.45 8.51 17.52 7.47 16.49C6.44 15.45 5.51 14.36 4.68 13.22C3.86 12.08 3.2 10.94 2.72 9.81C2.24 8.67 2 7.58 2 6.54C2 5.86 2.12 5.21 2.36 4.61C2.6 4 2.98 3.44 3.51 2.94C4.15 2.31 4.85 2 5.59 2C5.87 2 6.15 2.06 6.4 2.18C6.66 2.3 6.89 2.48 7.07 2.74L9.39 6.01C9.57 6.26 9.7 6.49 9.79 6.71C9.88 6.92 9.93 7.13 9.93 7.32C9.93 7.56 9.86 7.8 9.72 8.03C9.59 8.26 9.4 8.5 9.16 8.74L8.4 9.53C8.29 9.64 8.24 9.77 8.24 9.93C8.24 10.01 8.25 10.08 8.27 10.16C8.3 10.24 8.33 10.3 8.35 10.36C8.53 10.69 8.84 11.12 9.28 11.64C9.73 12.16 10.21 12.69 10.73 13.22C11.27 13.75 11.79 14.24 12.32 14.69C12.84 15.13 13.27 15.43 13.61 15.61C13.66 15.63 13.72 15.66 13.79 15.69C13.87 15.72 13.95 15.73 14.04 15.73C14.21 15.73 14.34 15.67 14.45 15.56L15.21 14.81C15.46 14.56 15.7 14.37 15.93 14.25C16.16 14.11 16.39 14.04 16.64 14.04C16.83 14.04 17.03 14.08 17.25 14.17C17.47 14.26 17.7 14.39 17.95 14.56L21.26 16.91C21.52 17.09 21.7 17.3 21.81 17.55C21.91 17.8 21.97 18.05 21.97 18.33Z" stroke-width="1.5" stroke-miterlimit="10"/>
		<path d="M18.5 9C18.5 8.4 18.03 7.48 17.33 6.73C16.69 6.04 15.84 5.5 15 5.5" stroke-width="1.5" stroke-linejoin="round"/>
		<path d="M22 9C22 5.13 18.87 2 15 2" stroke-width="1.5" stroke-linejoin="round"/>
	</symbol>


	<symbol id="icon-arrow-def" viewBox="0 0 24 24" fill="none" stroke="currentColor">
		<path d="M6.5 9L12 15L17.5 9" stroke-width="2" stroke-linecap="round" stroke-linejoin="round"/>
	</symbol>
	<symbol id="icon-mail" viewBox="0 0 48 48" fill="none" stroke="currentColor">
		<path d="M17 23.9999C11 23.9999 11 26.6849 11 29.9999V31.4999C11 35.64 11 39 18.5 39H30.5C36.5 39 38 35.64 38 31.4999V29.9999C38 26.6849 38 23.9999 32 23.9999C30.5 23.9999 30.08 24.3149 29.3 24.8999L27.77 26.5199C26 28.4099 23 28.4099 21.215 26.5199L19.7 24.8999C18.92 24.3149 18.5 23.9999 17 23.9999Z" stroke-width="2.5" stroke-miterlimit="10" stroke-linecap="round" stroke-linejoin="round"/>
		<path d="M35.0021 24.0001V15C35.0021 11.685 35.0021 9 29.0021 9H20.0021C14.0021 9 14.0021 11.685 14.0021 15V24.0001" stroke-width="2.5" stroke-miterlimit="10" stroke-linecap="round" stroke-linejoin="round"/>
		<path d="M22.3247 19.8445H27.3197" stroke-width="2.5" stroke-linecap="round" stroke-linejoin="round"/>
		<path d="M21.0822 15.3448H28.5822" stroke-width="2.5" stroke-linecap="round" stroke-linejoin="round"/>
	</symbol>
	<symbol id="icon-x" viewBox="0 0 48 48" fill="none" stroke="currentColor">
		<path d="M13.3899 34.6082L34.6031 13.395" stroke-width="2.5" stroke-linecap="round"/>
		<path d="M13.397 13.395L34.6102 34.6082" stroke-width="2.5" stroke-linecap="round"/>
	</symbol>
	<symbol id="icon-+" viewBox="0 0 24 24" fill="none" stroke="currentColor">
		<path d="M11.9974 20L11.9974 4" stroke-width="2"/>
		<path d="M4 11.999H20" stroke-width="2"/>
	</symbol>
	<symbol id="icon-top" viewBox="0 0 21 30" fill="none" stroke="currentColor">
		<path d="M10.0571 0.626465L10.0571 30.0002" stroke-width="2"/>
		<path d="M20.0771 11.7815C17.5399 11.5851 10.351 9.7653 10.351 7.84455e-06" stroke-width="2"/>
		<path d="M0.0771484 11.7815C2.6144 11.5851 9.80329 9.7653 9.80329 9.5429e-06" stroke-width="2"/>
	</symbol>
	<symbol id="icon-quotation-left" viewBox="0 0 24 19" fill="currentColor">
		<path d="M18.5106 19C16.8936 19 15.5745 18.4223 14.5532 17.2669C13.5319 16.1115 13.0213 14.5068 13.0213 12.4527C13.0213 9.75676 13.8511 7.27478 15.5106 5.00676C17.2128 2.73874 20.0426 1.06982 24 0V3.01689C22.766 3.44482 21.7021 3.91554 20.8085 4.42905C19.9149 4.94257 19.2553 5.52027 18.8298 6.16216C18.4043 6.76126 18.1915 7.48874 18.1915 8.34459C18.1915 8.98649 18.4255 9.4786 18.8936 9.82094C19.3617 10.1205 19.9149 10.4414 20.5532 10.7838C21.1915 11.1261 21.7447 11.5968 22.2128 12.1959C22.6809 12.795 22.9149 13.6723 22.9149 14.8277C22.9149 16.1543 22.4894 17.1813 21.6383 17.9088C20.7872 18.6363 19.7447 19 18.5106 19ZM5.42553 19C3.85106 19 2.55319 18.4223 1.53192 17.2669C0.510638 16.1115 0 14.5068 0 12.4527C0 9.75676 0.829787 7.27478 2.48936 5.00676C4.19149 2.73874 7.02128 1.06982 10.9787 0V3.01689C9.70213 3.44482 8.6383 3.91554 7.78723 4.42905C6.93617 4.94257 6.29787 5.52027 5.87234 6.16216C5.44681 6.76126 5.23404 7.48874 5.23404 8.34459C5.23404 8.98649 5.46809 9.4786 5.93617 9.82094C6.40426 10.1205 6.93617 10.4414 7.53192 10.7838C8.12766 11.1261 8.65957 11.5968 9.12766 12.1959C9.59574 12.795 9.82979 13.6723 9.82979 14.8277C9.82979 16.1543 9.40425 17.1813 8.55319 17.9088C7.74468 18.6363 6.70213 19 5.42553 19Z" />
	</symbol>
	<symbol id="icon-quotation-right" viewBox="0 0 24 19" fill="currentColor">
		<path d="M13.0213 19V15.9831C14.3404 15.5124 15.4255 15.0417 16.2766 14.5709C17.1277 14.0574 17.766 13.4797 18.1915 12.8378C18.617 12.1959 18.8298 11.4685 18.8298 10.6554C18.8298 10.0135 18.5957 9.5214 18.1277 9.17905C17.6596 8.83671 17.1064 8.51576 16.4681 8.21622C15.8723 7.87387 15.3404 7.40315 14.8723 6.80405C14.4043 6.16216 14.1702 5.26351 14.1702 4.10811C14.1702 2.78153 14.5745 1.7759 15.383 1.09122C16.234 0.363739 17.2766 0 18.5106 0C20.1277 0 21.4468 0.577703 22.4681 1.73311C23.4894 2.84572 24 4.45045 24 6.5473C24 9.24324 23.1702 11.7252 21.5106 13.9932C19.8511 16.2185 17.0213 17.8874 13.0213 19ZM0 19V15.9831C1.31915 15.5124 2.40426 15.0417 3.25532 14.5709C4.10638 14.0574 4.7234 13.4797 5.10638 12.8378C5.53191 12.1959 5.74468 11.4685 5.74468 10.6554C5.74468 10.0135 5.51064 9.5214 5.04255 9.17905C4.57447 8.83671 4.02128 8.51576 3.38298 8.21622C2.78723 7.87387 2.25532 7.40315 1.78723 6.80405C1.31915 6.16216 1.08511 5.26351 1.08511 4.10811C1.08511 2.78153 1.51064 1.7759 2.3617 1.09122C3.21277 0.363739 4.2766 0 5.55319 0C7.12766 0 8.42553 0.577703 9.44681 1.73311C10.4681 2.84572 10.9787 4.45045 10.9787 6.5473C10.9787 9.24324 10.1277 11.7252 8.42553 13.9932C6.76596 16.2185 3.95745 17.8874 0 19Z"/>
	</symbol>

	<symbol id="icon-home" viewBox="0 0 16 16" fill="currentColor">
		<path d="M13.4245 5.84068L12.99 5.50071H13.0005V3.00092H12.0005V4.72627L8.9245 2.31947C8.3805 1.89351 7.62 1.89351 7.076 2.31947L2.5755 5.84068C2.21 6.12666 2 6.55762 2 7.02208V14H6V9.50037C6 8.94792 6.4475 8.50046 7 8.50046H9C9.5525 8.50046 10 8.94792 10 9.50037V14H14V7.02208C14 6.55762 13.79 6.12666 13.4245 5.84068Z"/>
	</symbol>
	<symbol id="icon-search" viewBox="0 0 24 24" fill="none" stroke="currentColor">
		<path d="M6.7627 6.7627C9.11325 4.41214 12.9248 4.41214 15.2754 6.7627C17.6259 9.11326 17.6259 12.9249 15.2754 15.2754C12.9249 17.6259 9.11326 17.6259 6.7627 15.2754C4.41214 12.9248 4.41214 9.11325 6.7627 6.7627Z" stroke-width="2"/>
		<line x1="15.7442" y1="15.5702" x2="20.7074" y2="20.5334" stroke-width="2"/>
	</symbol>
	<symbol id="icon-download" viewBox="0 0 24 24" fill="none" stroke="currentColor">
		<path d="M16.4405 8.89844C20.0405 9.20844 21.5105 11.0584 21.5105 15.1084V15.2384C21.5105 19.7084 19.7205 21.4984 15.2505 21.4984H8.74047C4.27047 21.4984 2.48047 19.7084 2.48047 15.2384V15.1084C2.48047 11.0884 3.93047 9.23844 7.47047 8.90844" stroke-width="1.5" stroke-linecap="round" stroke-linejoin="round"/>
		<path d="M12 2V14.88" stroke-width="1.5" stroke-linecap="round" stroke-linejoin="round"/>
		<path d="M15.3504 12.6484L12.0004 15.9984L8.65039 12.6484" stroke-width="1.5" stroke-linecap="round" stroke-linejoin="round"/>
	</symbol>
	<symbol id="icon-bookmark" viewBox="0 0 20 22" fill="none" stroke="currentColor">
		<path d="M14.5 1H4.86C2.73 1 1 2.74 1 4.86V18.95C1 20.75 2.29 21.51 3.87 20.64L8.75 17.93C9.27 17.64 10.11 17.64 10.62 17.93L15.5 20.64C17.08 21.52 18.37 20.76 18.37 18.95V4.86C18.36 2.74 16.63 1 14.5 1Z" stroke-width="2" stroke-linecap="round" stroke-linejoin="round"/>
	</symbol>
	<symbol id="icon-outlink" viewBox="0 0 16 16" fill="none" stroke="currentColor">
		<path d="M8.6665 7.33385L14.1332 1.86719" stroke-width="1.5" stroke-linecap="round" stroke-linejoin="round"/>
		<path d="M14.6663 4.53398V1.33398H11.4663" stroke-width="1.5" stroke-linecap="round" stroke-linejoin="round"/>
		<path d="M7.33301 1.33398H5.99967C2.66634 1.33398 1.33301 2.66732 1.33301 6.00065V10.0007C1.33301 13.334 2.66634 14.6673 5.99967 14.6673H9.99967C13.333 14.6673 14.6663 13.334 14.6663 10.0007V8.66732" stroke-width="1.5" stroke-linecap="round" stroke-linejoin="round"/>
	</symbol>
</svg>