<svg width="64" height="64" viewBox="0 0 64 64" fill="none" xmlns="http://www.w3.org/2000/svg">
<path d="M35.661 6.25485L33.6137 18.039L39.3019 20.4652L22.9032 34.1145L27.4488 21.4551L19.4163 20.7997L35.661 6.25485Z" stroke="#B79A78" stroke-width="3" stroke-linecap="round" stroke-linejoin="round"/>
<path d="M41.8963 58.7787V48.4426H46.4593C47.5829 48.4426 48.6608 48.0068 49.4553 47.2316C50.2497 46.456 50.6963 45.4046 50.6963 44.308V36.039H54.9333L47.4965 16.2742C46.5252 14.6574 45.3573 13.1713 44.0235 11.8454M19.1319 8.38306C15.6001 10.4939 12.7087 13.485 10.7552 17.0485C8.80169 20.6121 7.85675 24.6192 8.01758 28.6575C8.17846 32.6958 9.43932 36.6193 11.6704 40.0241C13.9014 43.4289 17.0221 46.1918 20.7111 48.0291V58.7787" stroke="#B79A78" stroke-width="3" stroke-linecap="round" stroke-linejoin="round"/>
</svg>
