<svg width="64" height="64" viewBox="0 0 64 64" fill="none" xmlns="http://www.w3.org/2000/svg">
<path d="M19.3799 31.9988H24.0535L28.6697 24.4622L34.6048 39.9123L39.0626 31.9988H44.6205" stroke="#B79A78" stroke-width="3" stroke-linecap="round" stroke-linejoin="round"/>
<path d="M32.0004 52.3494C43.2388 52.3494 52.3494 43.2388 52.3494 32.0004C52.3494 20.7619 43.2388 11.6514 32.0004 11.6514C20.7619 11.6514 11.6514 20.7619 11.6514 32.0004C11.6514 43.2388 20.7619 52.3494 32.0004 52.3494Z" stroke="#B79A78" stroke-width="3" stroke-linecap="round" stroke-linejoin="round"/>
<path d="M43.3053 15.0429V7.12942C43.3053 5.9301 42.8289 4.77993 41.9809 3.93188C41.1328 3.08385 39.9826 2.60742 38.7833 2.60742H25.2173C24.018 2.60742 22.8678 3.08385 22.0198 3.93188C21.1718 4.77993 20.6953 5.9301 20.6953 7.12942V15.0429" stroke="#B79A78" stroke-width="3" stroke-linecap="round" stroke-linejoin="round"/>
<path d="M43.3053 48.8875V56.8715C43.3053 58.0707 42.8289 59.2211 41.9809 60.069C41.1328 60.9169 39.9826 61.3935 38.7833 61.3935H25.2173C24.018 61.3935 22.8678 60.9169 22.0198 60.069C21.1718 59.2211 20.6953 58.0707 20.6953 56.8715V48.8875" stroke="#B79A78" stroke-width="3" stroke-linecap="round" stroke-linejoin="round"/>
</svg>
