<svg width="64" height="64" viewBox="0 0 64 64" fill="none" xmlns="http://www.w3.org/2000/svg">
<path d="M58.0497 26.0509C58.0497 25.5624 57.8555 25.0939 57.5104 24.7485C57.1649 24.4031 56.6963 24.209 56.2079 24.209H54.3661V18.6836C54.3661 17.7066 53.9778 16.7697 53.2871 16.0789C52.5964 15.3881 51.6593 15 50.6824 15L9.68362 15C8.70665 15 7.76972 15.3881 7.07891 16.0789C6.38809 16.7697 6 17.7066 6 18.6836V44.4689C6 45.4458 6.38809 46.3829 7.07891 47.0736C7.76972 47.7643 8.70665 48.1526 9.68362 48.1526H50.6824C51.6593 48.1526 52.5964 47.7643 53.2871 47.0736C53.9778 46.3829 54.3661 45.4458 54.3661 44.4689V38.9435H56.2079C56.6963 38.9435 57.1649 38.7495 57.5104 38.404C57.8555 38.0587 58.0497 37.5902 58.0497 37.1017V26.0509Z" stroke="#B79A78" stroke-width="3" stroke-linecap="round" stroke-linejoin="round"/>
<rect x="13.2842" y="22.2847" width="7.28464" height="18.7319" rx="1.5" stroke="#B79A78" stroke-width="3"/>
</svg>
