<svg width="143" height="158" viewBox="0 0 143 158" fill="none" xmlns="http://www.w3.org/2000/svg">
<path d="M3.24179 34.9419H2.52033H1.43974H0.721457V73.6696H0V101.752H0.721457H1.43974H2.52033H3.24179H3.96007V73.6696H3.24179V34.9419Z" fill="white"/>
<path d="M13.6186 28.0627H12.8972V16.1636H11.8166V28.0627H11.0983V69.1829H10.3768V120.53H11.0983H11.8166H12.8972H13.6186H14.3369V69.1829H13.6186V28.0627Z" fill="white"/>
<path d="M23.9956 40.314H23.2742V4.17871H22.1936V40.314H21.4753V67.1997H20.7538V132.512H21.4753H22.1936H23.2742H23.9956H24.7171V67.1997H23.9956V40.314Z" fill="white"/>
<path d="M34.3725 47.9736H33.6542V-4.45557H32.5736V47.9736H31.8521V67.155H31.1307V141.149H31.8521H32.5736H33.6542H34.3725H35.0939V67.155H34.3725V47.9736Z" fill="white"/>
<path d="M44.7493 53.1711H44.031V-10.8208H42.9504V53.1711H42.229V68.8685H41.5107V147.514H42.229H42.9504H44.031H44.7493H45.4708V68.8685H44.7493V53.1711Z" fill="white"/>
<path d="M55.1295 56.4489H54.408V-15.4409H53.3274V56.4489H52.606V72.381H51.8877V152.134H52.606H53.3274H54.408H55.1295H55.8478V72.381H55.1295V56.4489Z" fill="white"/>
<path d="M65.5063 57.9153H64.7849V-18.5786H63.7043V57.9153H62.986V77.7313H62.2645V155.272H62.986H63.7043H64.7849H65.5063H66.2246V77.7313H65.5063V57.9153Z" fill="white"/>
<path d="M75.8834 57.7787H75.1619V-20.397H74.0813V57.7787H73.3631V84.2043H72.6416V157.09H73.3631H74.0813H75.1619H75.8834H76.6017V84.2043H75.8834V57.7787Z" fill="white"/>
<path d="M86.2602 56.2936H85.5388V-21H84.4582V56.2936H83.7399V90.6424H83.0184V157.693H83.7399H84.4582H85.5388H86.2602H86.9817V90.6424H86.2602V56.2936Z" fill="white"/>
<path d="M96.6372 53.5997H95.919V-20.397H94.8384V53.5997H94.1169V96.0368H93.3954V157.09H94.1169H94.8384H95.919H96.6372H97.3587V96.0368H96.6372V53.5997Z" fill="white"/>
<path d="M107.014 49.77H106.296V-18.5786H105.215V49.77H104.494V100.292H103.775V155.272H104.494H105.215H106.296H107.014H107.736V100.292H107.014V49.77Z" fill="white"/>
<path d="M117.391 44.8226H116.673V-15.4409H115.592V44.8226H114.871V103.43H114.152V152.134H114.871H115.592H116.673H117.391H118.112V103.43H117.391V44.8226Z" fill="white"/>
<path d="M127.771 38.7145H127.049V-10.8208H125.969V38.7145H125.251V105.388H124.529V147.514H125.251H125.969H127.049H127.771H128.489V105.388H127.771V38.7145Z" fill="white"/>
<path d="M138.148 32.1049H137.426V-4.45557H136.346V32.1049H135.628V106.064H134.906V141.149H135.628H136.346H137.426H138.148H138.866V106.064H138.148V32.1049Z" fill="white"/>
</svg>
