<svg width="132" height="160" viewBox="0 0 132 160" fill="none" xmlns="http://www.w3.org/2000/svg">
<path d="M2.11438 24.7046V114.857L3.9331 115.907V23.6543L2.11438 24.7046Z" fill="#B79A78"/>
<path d="M13.127 18.3404V121.221L14.9422 122.271V17.29L13.127 18.3404Z" fill="#B79A78"/>
<path d="M24.1356 11.9761V127.585L25.9543 128.635V10.9258L24.1356 11.9761Z" fill="#B79A78"/>
<path d="M35.1484 5.61186V133.949L36.9672 134.999V4.56152L35.1484 5.61186Z" fill="#B79A78"/>
<path d="M46.1572 -0.752406V140.313L47.9759 141.364V-1.80273L46.1572 -0.752406Z" fill="#B79A78"/>
<path d="M57.1689 -7.11614V146.678L58.9877 147.728V-8.16992L57.1689 -7.11614Z" fill="#B79A78"/>
<path d="M68.1816 -13.4843V153.041L69.9969 154.092V-14.5347L68.1816 -13.4843Z" fill="#B79A78"/>
<path d="M79.1906 -21.0088V159.406L80.0982 159.931L81.0093 159.406V-19.8479L79.1906 -21.0088Z" fill="#B79A78"/>
<path d="M90.2031 -14.5347V154.092L92.0184 153.041V-13.4843L90.2031 -14.5347Z" fill="#B79A78"/>
<path d="M101.212 -8.16992V147.728L103.031 146.678V-7.11614L101.212 -8.16992Z" fill="#B79A78"/>
<path d="M112.225 -1.80273V141.364L114.04 140.313V-0.752406L112.225 -1.80273Z" fill="#B79A78"/>
<path d="M123.233 4.56152V134.999L125.052 133.949V5.61186L123.233 4.56152Z" fill="#B79A78"/>
<path d="M4.23132 -4.92229V85.2299L6.04659 86.2803V-5.97607L4.23132 -4.92229Z" fill="#B79A78"/>
<path d="M15.2402 -11.29V91.594L17.059 92.6443V-12.3403L15.2402 -11.29Z" fill="#B79A78"/>
<path d="M26.252 -17.6538V97.9586L28.0672 99.0089V-18.7041L26.252 -17.6538Z" fill="#B79A78"/>
<path d="M37.2615 -24.0185V104.322L39.0802 105.373V-25.0688L37.2615 -24.0185Z" fill="#B79A78"/>
<path d="M48.2734 -30.3823V110.687L50.0887 111.737V-31.4326L48.2734 -30.3823Z" fill="#B79A78"/>
<path d="M59.2832 -36.7465V117.051L61.1019 118.101V-37.7969L59.2832 -36.7465Z" fill="#B79A78"/>
<path d="M70.2949 -43.1108V123.415L72.1136 124.465V-44.1611L70.2949 -43.1108Z" fill="#B79A78"/>
<path d="M82.2151 -50L81.3075 -49.4748V129.779L83.1228 130.85V-49.4748L82.2151 -50Z" fill="#B79A78"/>
<path d="M92.3164 -44.1611V124.465L94.1351 123.415V-43.1108L92.3164 -44.1611Z" fill="#B79A78"/>
<path d="M103.328 -37.7969V118.101L105.143 117.051V-36.7465L103.328 -37.7969Z" fill="#B79A78"/>
<path d="M114.338 -31.4326V111.737L116.156 110.687V-30.3823L114.338 -31.4326Z" fill="#B79A78"/>
<path d="M125.35 -25.0688V105.373L127.165 104.322V-24.0185L125.35 -25.0688Z" fill="#B79A78"/>
<path d="M0 55.0398L1.81872 56.0902V23.9307L0 22.8804V55.0398Z" fill="#B79A78"/>
<path d="M11.0127 61.4041L12.828 62.4544V30.295L11.0127 29.2446V61.4041Z" fill="#B79A78"/>
<path d="M22.0215 67.7683L23.8402 68.8187V36.6592L22.0215 35.6089V67.7683Z" fill="#B79A78"/>
<path d="M33.0332 74.1331L34.8485 75.1834V43.024L33.0332 41.9736V74.1331Z" fill="#B79A78"/>
<path d="M44.043 80.4964L45.8617 81.5467V49.3872L44.043 48.3369V80.4964Z" fill="#B79A78"/>
<path d="M55.0547 86.8606L56.87 87.911V55.7515L55.0547 54.7012V86.8606Z" fill="#B79A78"/>
<path d="M66.0645 93.2249L67.8832 94.2787V62.1158L66.0645 61.0654V93.2249Z" fill="#B79A78"/>
<path d="M77.0762 99.5926L78.8949 100.671V68.48L77.0762 67.4297V99.5926Z" fill="#B79A78"/>
<path d="M88.0851 94.279L89.9038 93.2252V65.2671L88.0851 66.3209V94.279Z" fill="#B79A78"/>
<path d="M99.0977 87.9118L100.916 86.8615V58.9033L99.0977 59.9536V87.9118Z" fill="#B79A78"/>
<path d="M110.11 81.5466L111.926 80.4962V52.5381L110.11 53.5884V81.5466Z" fill="#B79A78"/>
<path d="M121.119 75.1833L122.938 74.133V46.1748L121.119 47.2251V75.1833Z" fill="#B79A78"/>
</svg>
