<svg width="142" height="136" viewBox="0 0 142 136" fill="none" xmlns="http://www.w3.org/2000/svg">
<path d="M1.53879 116.396H0V135.808H1.53879V116.396Z" fill="white"/>
<path d="M11.3037 98.9722H9.76489V135.808H11.3037V98.9722Z" fill="white"/>
<path d="M21.0689 81.5459H19.5302V135.809H21.0689V81.5459Z" fill="white"/>
<path d="M30.8347 64.1226H29.2959V135.808H30.8347V64.1226Z" fill="white"/>
<path d="M40.6032 46.6992H39.0645V135.812H40.6032V46.6992Z" fill="white"/>
<path d="M50.3679 29.2734H48.8291V135.809H50.3679V29.2734Z" fill="white"/>
<path d="M60.1334 11.8496H58.5946V135.809H60.1334V11.8496Z" fill="white"/>
<path d="M69.8991 -5.57666H68.3604V135.809H69.8991V-5.57666Z" fill="white"/>
<path d="M79.6638 -23H78.125V135.809H79.6638V-23Z" fill="white"/>
<path d="M89.4294 -5.57666H87.8906V135.809H89.4294V-5.57666Z" fill="white"/>
<path d="M99.195 11.8496H97.6562V135.809H99.195V11.8496Z" fill="white"/>
<path d="M108.963 29.2729H107.424V135.809H108.963V29.2729Z" fill="white"/>
<path d="M118.728 46.6992H117.189V135.812H118.728V46.6992Z" fill="white"/>
<path d="M128.494 64.1226H126.955V135.808H128.494V64.1226Z" fill="white"/>
<path d="M138.259 81.5459H136.72V135.809H138.259V81.5459Z" fill="white"/>
<path d="M138.259 -23H136.72V31.2626H138.259V-23Z" fill="white"/>
<path d="M128.494 -23H126.955V48.6859H128.494V-23Z" fill="white"/>
<path d="M118.728 -23H117.189V66.1124H118.728V-23Z" fill="white"/>
<path d="M108.963 -23H107.424V83.5357H108.963V-23Z" fill="white"/>
<path d="M99.195 -23H97.6562V100.959H99.195V-23Z" fill="white"/>
<path d="M89.4294 -23H87.8906V118.385H89.4294V-23Z" fill="white"/>
<path d="M79.6638 -23H78.125V135.809H79.6638V-23Z" fill="white"/>
<path d="M69.8991 -23H68.3604V118.385H69.8991V-23Z" fill="white"/>
<path d="M60.1334 -23H58.5946V100.959H60.1334V-23Z" fill="white"/>
<path d="M50.3679 -23H48.8291V83.5357H50.3679V-23Z" fill="white"/>
<path d="M40.6032 -23H39.0645V66.1124H40.6032V-23Z" fill="white"/>
<path d="M30.8347 -23H29.2959V48.6859H30.8347V-23Z" fill="white"/>
<path d="M21.0689 -23H19.5302V31.2626H21.0689V-23Z" fill="white"/>
<path d="M11.3037 -23H9.76489V13.8361H11.3037V-23Z" fill="white"/>
<path d="M41.6814 46.6992H37.9863V66.1121H41.6814V46.6992Z" fill="white"/>
<path d="M51.447 29.2734H47.752V83.5361H51.447V29.2734Z" fill="white"/>
<path d="M61.2115 11.8496H57.5165V100.962H61.2115V11.8496Z" fill="white"/>
<path d="M70.9773 -5.57666H67.2822V118.382H70.9773V-5.57666Z" fill="white"/>
<path d="M80.742 -23H77.047V135.809H80.742V-23Z" fill="white"/>
<path d="M90.5107 -5.57666H86.8157V118.382H90.5107V-5.57666Z" fill="white"/>
<path d="M100.276 11.8496H96.5809V100.962H100.276V11.8496Z" fill="white"/>
<path d="M110.041 29.2729H106.346V83.5356H110.041V29.2729Z" fill="white"/>
<path d="M119.807 46.6992H116.112V66.1121H119.807V46.6992Z" fill="white"/>
</svg>
